<svg width="512" height="332" viewBox="0 0 512 332" fill="none" xmlns="http://www.w3.org/2000/svg">
<path d="M0 259.981V61.9121H289.184L336.346 177.641L384.638 61.9121H450.156L366.564 259.981H301.045L285.16 222.338C292.738 207.563 296.527 191.06 296.527 172.83C296.527 153.132 292.103 135.45 283.254 119.785C274.406 104.12 262.175 91.8785 246.56 83.061C230.946 74.2436 213.336 69.8348 193.731 69.8348C174.126 69.8348 156.516 74.2436 140.902 83.061C127.875 90.417 117.203 100.156 108.886 112.277L65.5183 112.278V135.48L97.0587 135.481C92.9762 147 90.9349 159.45 90.9349 172.83C90.9349 176.484 91.0871 180.068 91.3915 183.583L65.5183 183.583L65.5179 208.483H94.7887C122.946 208.483 145.825 231.08 146.28 259.129L146.287 259.981H0Z" fill="#2889D7"/>
<path d="M19.3324 320.863V316.311H5.32084V301.59H17.1449V297.156H5.32084V284.445H18.3865V279.893H0V320.863H19.3324ZM31.6886 320.863V294.259C32.9892 293.865 34.1519 293.668 35.1767 293.668C37.1474 293.668 38.4874 294.377 39.1969 295.796C39.9063 297.215 40.261 299.462 40.261 302.536V320.863H45.3454V302.122C45.3454 300.703 45.2666 299.422 45.1089 298.279C44.9513 297.136 44.7148 296.112 44.3995 295.205C45.0695 294.732 45.7888 294.358 46.5574 294.082C47.3259 293.806 48.0847 293.668 48.8335 293.668C50.8042 293.668 52.1443 294.377 52.8537 295.796C53.5632 297.215 53.9179 299.462 53.9179 302.536V320.863H59.0022V302.122C59.0022 299.639 58.7658 297.56 58.2928 295.885C57.8198 294.21 57.1695 292.88 56.3418 291.894C55.5141 290.909 54.5189 290.209 53.3562 289.796C52.1935 289.382 50.9027 289.175 49.4838 289.175C48.0649 289.175 46.7643 289.392 45.5819 289.825C44.3995 290.259 43.2959 290.81 42.2711 291.48C41.404 290.653 40.4088 290.062 39.2856 289.707C38.1623 289.352 36.9109 289.175 35.5314 289.175C34.1913 289.175 32.7133 289.323 31.0974 289.618C29.4814 289.914 27.9837 290.278 26.6042 290.712V320.863H31.6886ZM75.9107 321.632C80.0885 321.632 83.153 320.272 85.1039 317.553C87.0549 314.833 88.0304 310.734 88.0304 305.256C88.0304 302.772 87.8235 300.536 87.4096 298.545C86.9958 296.555 86.3553 294.86 85.4882 293.461C84.6211 292.062 83.4978 290.978 82.1183 290.209C80.7389 289.441 79.0835 289.057 77.1522 289.057C76.2457 289.057 75.4673 289.145 74.817 289.323C74.1666 289.5 73.5262 289.746 72.8955 290.062V274.986L67.8112 275.873V320.036C68.9148 320.509 70.176 320.893 71.5949 321.189C73.0138 321.484 74.4524 321.632 75.9107 321.632ZM75.9107 317.139C75.4771 317.139 75.0042 317.109 74.4918 317.05C73.9794 316.991 73.4473 316.883 72.8955 316.725V294.496C74.0385 293.865 75.2604 293.55 76.561 293.55C77.5464 293.55 78.4135 293.747 79.1623 294.141C79.9112 294.535 80.5517 295.185 81.0837 296.092C81.6158 296.998 82.0198 298.201 82.2957 299.698C82.5716 301.196 82.7095 303.048 82.7095 305.256C82.7095 309.512 82.1479 312.557 81.0246 314.39C79.9013 316.222 78.1967 317.139 75.9107 317.139ZM103.579 321.514C104.998 321.514 106.446 321.395 107.924 321.159C109.402 320.922 110.851 320.607 112.27 320.213V299.639C112.27 296.013 111.403 293.343 109.668 291.628C107.934 289.914 105.688 289.057 102.929 289.057C101.589 289.057 100.347 289.185 99.2042 289.441C98.0612 289.697 96.9773 290.042 95.9525 290.475L97.0167 294.791C97.9232 294.397 98.7805 294.111 99.5884 293.934C100.396 293.757 101.254 293.668 102.16 293.668C103.816 293.668 105.087 294.121 105.973 295.028C106.86 295.934 107.304 297.53 107.304 299.816V302.654C105.727 302.339 104.289 302.181 102.988 302.181C101.608 302.181 100.327 302.388 99.145 302.802C97.9626 303.216 96.9379 303.827 96.0708 304.635C95.2037 305.443 94.5238 306.448 94.0311 307.65C93.5385 308.852 93.2921 310.261 93.2921 311.877C93.2921 313.611 93.568 315.079 94.1198 316.282C94.6716 317.484 95.4106 318.479 96.3368 319.267C97.263 320.055 98.3469 320.627 99.5884 320.982C100.83 321.336 102.16 321.514 103.579 321.514ZM103.816 317.139C102.081 317.139 100.741 316.705 99.7954 315.838C98.8494 314.971 98.3765 313.631 98.3765 311.818C98.3765 310.754 98.5144 309.877 98.7903 309.187C99.0662 308.497 99.4505 307.946 99.9432 307.532C100.436 307.118 101.017 306.822 101.687 306.645C102.357 306.468 103.067 306.379 103.816 306.379C104.959 306.379 106.121 306.537 107.304 306.852V316.725C106.042 317.001 104.88 317.139 103.816 317.139ZM126.222 320.863V294.377C127.483 293.865 128.843 293.609 130.302 293.609C131.878 293.609 133.297 293.885 134.558 294.437L135.445 290.062C134.617 289.746 133.731 289.53 132.785 289.411C131.839 289.293 130.893 289.234 129.947 289.234C128.173 289.234 126.547 289.421 125.069 289.796C123.591 290.17 122.281 290.633 121.138 291.185V320.863H126.222ZM145.614 320.863V305.669C146.363 306.497 147.171 307.522 148.038 308.744C148.905 309.965 149.772 311.256 150.639 312.616C151.506 313.976 152.334 315.365 153.122 316.784C153.91 318.203 154.6 319.563 155.191 320.863H160.749C160.197 319.523 159.527 318.114 158.738 316.636C157.95 315.158 157.103 313.68 156.196 312.202C155.29 310.724 154.344 309.295 153.359 307.916C152.373 306.537 151.408 305.295 150.462 304.191C151.959 302.142 153.467 299.945 154.984 297.599C156.502 295.254 158.088 292.663 159.744 289.825H154.304C153.831 290.732 153.24 291.756 152.531 292.899C151.821 294.042 151.073 295.215 150.284 296.417C149.496 297.619 148.698 298.811 147.89 299.994C147.082 301.176 146.323 302.24 145.614 303.186V274.986L140.529 275.873V320.863H145.614ZM168.316 284.327C169.223 284.327 170.001 284.021 170.651 283.411C171.302 282.8 171.627 281.982 171.627 280.957C171.627 279.932 171.302 279.114 170.651 278.504C170.001 277.893 169.223 277.587 168.316 277.587C167.409 277.587 166.631 277.893 165.981 278.504C165.33 279.114 165.005 279.932 165.005 280.957C165.005 281.982 165.33 282.8 165.981 283.411C166.631 284.021 167.409 284.327 168.316 284.327ZM170.858 320.863V289.825H165.774V320.863H170.858ZM185.165 320.863V294.259C186.584 293.865 187.865 293.668 189.008 293.668C191.176 293.668 192.654 294.377 193.442 295.796C194.23 297.215 194.625 299.462 194.625 302.536V320.863H199.709V302.122C199.709 299.639 199.463 297.56 198.97 295.885C198.477 294.21 197.788 292.88 196.901 291.894C196.014 290.909 194.94 290.209 193.679 289.796C192.417 289.382 191.018 289.175 189.481 289.175C188.062 289.175 186.505 289.323 184.811 289.618C183.116 289.914 181.539 290.278 180.081 290.712V320.863H185.165ZM216.144 331.978C217.642 331.978 219.051 331.761 220.372 331.328C221.692 330.894 222.845 330.204 223.83 329.258C224.815 328.313 225.594 327.081 226.165 325.563C226.737 324.046 227.023 322.184 227.023 319.977V290.653C225.919 290.18 224.668 289.796 223.268 289.5C221.869 289.204 220.441 289.057 218.982 289.057C216.775 289.057 214.903 289.421 213.366 290.15C211.829 290.879 210.577 291.944 209.612 293.343C208.646 294.742 207.937 296.437 207.483 298.427C207.03 300.418 206.803 302.654 206.803 305.137C206.803 309.788 207.661 313.385 209.375 315.927C211.09 318.469 213.799 319.74 217.504 319.74C218.411 319.74 219.219 319.651 219.928 319.474C220.638 319.297 221.308 319.07 221.938 318.794V320.272C221.938 322.952 221.386 324.844 220.283 325.948C219.179 327.051 217.662 327.603 215.731 327.603C214.627 327.603 213.563 327.445 212.538 327.13C211.513 326.815 210.646 326.46 209.937 326.066L208.873 330.323C209.937 330.874 211.1 331.288 212.361 331.564C213.622 331.84 214.883 331.978 216.144 331.978ZM218.273 315.247C216.302 315.247 214.785 314.488 213.721 312.971C212.656 311.453 212.124 308.842 212.124 305.137C212.124 301.038 212.666 298.082 213.75 296.269C214.834 294.456 216.558 293.55 218.923 293.55C219.357 293.55 219.83 293.579 220.342 293.638C220.854 293.697 221.386 293.806 221.938 293.964V314.36C221.386 314.636 220.805 314.853 220.194 315.01C219.583 315.168 218.943 315.247 218.273 315.247ZM249.488 321.75C251.971 321.75 254.129 321.238 255.962 320.213C257.795 319.188 259.312 317.74 260.514 315.868C261.716 313.996 262.603 311.749 263.175 309.128C263.746 306.507 264.032 303.6 264.032 300.408C264.032 297.215 263.746 294.299 263.175 291.658C262.603 289.017 261.716 286.761 260.514 284.889C259.312 283.016 257.795 281.558 255.962 280.514C254.129 279.469 251.971 278.947 249.488 278.947C247.005 278.947 244.847 279.469 243.015 280.514C241.182 281.558 239.665 283.016 238.462 284.889C237.26 286.761 236.364 289.017 235.772 291.658C235.181 294.299 234.886 297.215 234.886 300.408C234.886 303.6 235.181 306.507 235.772 309.128C236.364 311.749 237.26 313.996 238.462 315.868C239.665 317.74 241.182 319.188 243.015 320.213C244.847 321.238 247.005 321.75 249.488 321.75ZM249.488 317.08C247.872 317.08 246.503 316.676 245.38 315.868C244.256 315.06 243.34 313.927 242.63 312.468C241.921 311.01 241.399 309.256 241.064 307.207C240.729 305.157 240.561 302.891 240.561 300.408C240.561 297.925 240.729 295.658 241.064 293.609C241.399 291.559 241.921 289.796 242.63 288.318C243.34 286.84 244.256 285.687 245.38 284.859C246.503 284.031 247.872 283.617 249.488 283.617C251.104 283.617 252.474 284.031 253.597 284.859C254.721 285.687 255.637 286.84 256.346 288.318C257.056 289.796 257.568 291.559 257.884 293.609C258.199 295.658 258.356 297.925 258.356 300.408C258.356 302.891 258.199 305.157 257.884 307.207C257.568 309.256 257.056 311.01 256.346 312.468C255.637 313.927 254.721 315.06 253.597 315.868C252.474 316.676 251.104 317.08 249.488 317.08ZM277.039 320.863V294.259C278.457 293.865 279.738 293.668 280.881 293.668C283.049 293.668 284.527 294.377 285.315 295.796C286.104 297.215 286.498 299.462 286.498 302.536V320.863H291.582V302.122C291.582 299.639 291.336 297.56 290.843 295.885C290.351 294.21 289.661 292.88 288.774 291.894C287.887 290.909 286.813 290.209 285.552 289.796C284.291 289.382 282.891 289.175 281.354 289.175C279.935 289.175 278.379 289.323 276.684 289.618C274.989 289.914 273.413 290.278 271.954 290.712V320.863H277.039ZM313.398 320.863C314.304 317.907 315.211 314.922 316.117 311.907C317.024 308.891 317.92 305.729 318.807 302.418C319.694 299.107 320.571 295.609 321.438 291.924C322.305 288.239 323.172 284.228 324.039 279.893H318.659C318.147 282.928 317.576 285.972 316.945 289.027C316.314 292.082 315.644 295.087 314.935 298.043C314.225 300.999 313.506 303.866 312.777 306.645C312.048 309.424 311.328 312.054 310.619 314.537C309.91 312.054 309.19 309.424 308.461 306.645C307.732 303.866 307.013 300.999 306.303 298.043C305.594 295.087 304.924 292.082 304.293 289.027C303.662 285.972 303.091 282.928 302.579 279.893H297.021C297.888 284.228 298.755 288.239 299.623 291.924C300.49 295.609 301.367 299.107 302.253 302.418C303.14 305.729 304.037 308.891 304.943 311.907C305.85 314.922 306.756 317.907 307.663 320.863H313.398ZM337.755 321.632C339.608 321.632 341.214 321.238 342.574 320.45C343.933 319.661 345.057 318.558 345.943 317.139C346.83 315.72 347.49 314.015 347.924 312.025C348.358 310.034 348.574 307.817 348.574 305.374C348.574 302.97 348.358 300.762 347.924 298.752C347.49 296.742 346.83 295.018 345.943 293.579C345.057 292.141 343.933 291.027 342.574 290.239C341.214 289.451 339.608 289.057 337.755 289.057C335.903 289.057 334.287 289.451 332.907 290.239C331.528 291.027 330.395 292.141 329.508 293.579C328.621 295.018 327.961 296.742 327.527 298.752C327.094 300.762 326.877 302.97 326.877 305.374C326.877 307.817 327.094 310.034 327.527 312.025C327.961 314.015 328.621 315.72 329.508 317.139C330.395 318.558 331.528 319.661 332.907 320.45C334.287 321.238 335.903 321.632 337.755 321.632ZM337.755 317.08C336.731 317.08 335.873 316.794 335.184 316.222C334.494 315.651 333.922 314.853 333.469 313.828C333.016 312.803 332.691 311.572 332.494 310.133C332.297 308.694 332.198 307.108 332.198 305.374C332.198 303.64 332.297 302.053 332.494 300.615C332.691 299.176 333.016 297.934 333.469 296.89C333.922 295.846 334.494 295.038 335.184 294.466C335.873 293.895 336.731 293.609 337.755 293.609C338.741 293.609 339.588 293.895 340.297 294.466C341.007 295.038 341.578 295.846 342.012 296.89C342.446 297.934 342.761 299.176 342.958 300.615C343.155 302.053 343.254 303.64 343.254 305.374C343.254 307.108 343.155 308.694 342.958 310.133C342.761 311.572 342.446 312.803 342.012 313.828C341.578 314.853 341.007 315.651 340.297 316.222C339.588 316.794 338.741 317.08 337.755 317.08ZM355.078 331.978C356.378 331.978 357.502 331.771 358.447 331.357C359.393 330.943 360.27 330.273 361.078 329.347C361.886 328.421 362.635 327.199 363.325 325.682C364.015 324.164 364.734 322.302 365.483 320.095C366.113 318.203 366.793 316.104 367.522 313.798C368.252 311.493 368.981 309.039 369.71 306.438C370.439 303.837 371.148 301.137 371.838 298.338C372.528 295.54 373.168 292.702 373.76 289.825H368.734C367.867 294.318 366.961 298.555 366.015 302.536C365.069 306.517 364.024 310.478 362.881 314.419C362.409 312.843 361.916 311.02 361.403 308.951C360.891 306.881 360.389 304.743 359.896 302.536C359.403 300.329 358.94 298.122 358.507 295.915C358.073 293.707 357.699 291.678 357.383 289.825H352.003C352.555 292.545 353.166 295.333 353.836 298.191C354.506 301.048 355.206 303.837 355.935 306.556C356.664 309.276 357.413 311.887 358.181 314.39C358.95 316.892 359.709 319.169 360.458 321.218L359.866 322.696C359.196 324.351 358.507 325.593 357.797 326.421C357.088 327.248 356.161 327.662 355.018 327.662C354.112 327.662 353.146 327.445 352.122 327.012L351.176 331.15C351.649 331.347 352.24 331.535 352.949 331.712C353.659 331.889 354.368 331.978 355.078 331.978ZM386.53 321.514C387.949 321.514 389.397 321.395 390.875 321.159C392.353 320.922 393.802 320.607 395.22 320.213V299.639C395.22 296.013 394.353 293.343 392.619 291.628C390.885 289.914 388.638 289.057 385.879 289.057C384.539 289.057 383.298 289.185 382.155 289.441C381.012 289.697 379.928 290.042 378.903 290.475L379.967 294.791C380.874 294.397 381.731 294.111 382.539 293.934C383.347 293.757 384.204 293.668 385.111 293.668C386.766 293.668 388.037 294.121 388.924 295.028C389.811 295.934 390.254 297.53 390.254 299.816V302.654C388.678 302.339 387.239 302.181 385.938 302.181C384.559 302.181 383.278 302.388 382.096 302.802C380.913 303.216 379.888 303.827 379.021 304.635C378.154 305.443 377.474 306.448 376.982 307.65C376.489 308.852 376.243 310.261 376.243 311.877C376.243 313.611 376.519 315.079 377.07 316.282C377.622 317.484 378.361 318.479 379.287 319.267C380.214 320.055 381.298 320.627 382.539 320.982C383.781 321.336 385.111 321.514 386.53 321.514ZM386.766 317.139C385.032 317.139 383.692 316.705 382.746 315.838C381.8 314.971 381.327 313.631 381.327 311.818C381.327 310.754 381.465 309.877 381.741 309.187C382.017 308.497 382.401 307.946 382.894 307.532C383.386 307.118 383.968 306.822 384.638 306.645C385.308 306.468 386.017 306.379 386.766 306.379C387.909 306.379 389.072 306.537 390.254 306.852V316.725C388.993 317.001 387.83 317.139 386.766 317.139ZM411.656 331.978C413.154 331.978 414.563 331.761 415.883 331.328C417.203 330.894 418.356 330.204 419.342 329.258C420.327 328.313 421.105 327.081 421.677 325.563C422.248 324.046 422.534 322.184 422.534 319.977V290.653C421.43 290.18 420.179 289.796 418.78 289.5C417.381 289.204 415.952 289.057 414.494 289.057C412.286 289.057 410.414 289.421 408.877 290.15C407.34 290.879 406.089 291.944 405.123 293.343C404.157 294.742 403.448 296.437 402.995 298.427C402.542 300.418 402.315 302.654 402.315 305.137C402.315 309.788 403.172 313.385 404.887 315.927C406.601 318.469 409.311 319.74 413.016 319.74C413.922 319.74 414.73 319.651 415.44 319.474C416.149 319.297 416.819 319.07 417.45 318.794V320.272C417.45 322.952 416.898 324.844 415.794 325.948C414.691 327.051 413.173 327.603 411.242 327.603C410.138 327.603 409.074 327.445 408.05 327.13C407.025 326.815 406.158 326.46 405.448 326.066L404.384 330.323C405.448 330.874 406.611 331.288 407.872 331.564C409.133 331.84 410.395 331.978 411.656 331.978ZM413.784 315.247C411.814 315.247 410.296 314.488 409.232 312.971C408.168 311.453 407.636 308.842 407.636 305.137C407.636 301.038 408.178 298.082 409.262 296.269C410.345 294.456 412.07 293.55 414.435 293.55C414.868 293.55 415.341 293.579 415.853 293.638C416.366 293.697 416.898 293.806 417.45 293.964V314.36C416.898 314.636 416.317 314.853 415.706 315.01C415.095 315.168 414.454 315.247 413.784 315.247ZM441.63 321.632C443.285 321.632 444.714 321.425 445.916 321.011C447.118 320.597 447.976 320.213 448.488 319.858L447.542 315.779C447.108 316.015 446.409 316.301 445.443 316.636C444.478 316.971 443.423 317.139 442.28 317.139C440.901 317.139 439.768 316.883 438.881 316.37C437.994 315.858 437.285 315.139 436.753 314.212C436.22 313.286 435.836 312.202 435.6 310.961C435.363 309.719 435.225 308.35 435.186 306.852H449.907C449.946 306.379 449.966 305.916 449.966 305.462V304.132C449.966 299.363 449.237 295.658 447.779 293.018C446.32 290.377 443.837 289.057 440.329 289.057C437.216 289.057 434.713 290.377 432.821 293.018C430.929 295.658 429.983 299.836 429.983 305.551C429.983 307.916 430.18 310.084 430.574 312.054C430.969 314.025 431.629 315.72 432.555 317.139C433.481 318.558 434.683 319.661 436.161 320.45C437.639 321.238 439.462 321.632 441.63 321.632ZM444.645 302.713H435.245C435.403 299.876 435.866 297.609 436.634 295.915C437.403 294.22 438.635 293.372 440.329 293.372C442.024 293.372 443.167 294.21 443.758 295.885C444.349 297.56 444.645 299.836 444.645 302.713Z" fill="#3E4560"/>
<path d="M195.708 224.328C205.133 224.328 213.599 222.209 221.106 217.97C228.613 213.73 234.494 207.845 238.748 200.314C243.002 192.783 245.129 184.282 245.129 174.811C245.129 165.341 243.002 156.84 238.748 149.309C234.494 141.777 228.613 135.892 221.106 131.653C213.599 127.414 205.133 125.294 195.708 125.294C186.282 125.294 177.816 127.414 170.309 131.653C162.802 135.892 156.921 141.777 152.668 149.309C148.414 156.84 146.287 165.341 146.287 174.811C146.287 184.282 148.414 192.783 152.668 200.314C156.921 207.845 162.802 213.73 170.309 217.97C177.816 222.209 186.282 224.328 195.708 224.328Z" fill="#FDA252"/>
<path fill-rule="evenodd" clip-rule="evenodd" d="M478.493 0.0869816C472.657 0.587042 467.108 2.70133 462.458 6.19646C456.111 10.9669 451.804 18.0146 450.493 25.7735C450.163 27.7247 450.11 28.4459 450.11 30.9669C450.11 33.4878 450.163 34.2091 450.493 36.1603C451.989 45.0175 457.338 52.8351 465.11 57.5242C468.876 59.7968 472.952 61.1809 477.576 61.7577C478.748 61.9037 482.037 61.963 483.32 61.8611C490.837 61.264 497.655 58.1339 502.934 52.856C508.181 47.6105 511.307 40.8438 511.934 33.3769C512.022 32.3281 512.022 29.6057 511.934 28.5569C511.311 21.1416 508.21 14.3887 503.032 9.17496C497.764 3.86995 490.96 0.710122 483.45 0.0799213C482.49 -0.000593428 479.464 0.00375139 478.493 0.0869816ZM484.299 4.1134C487.711 4.58779 490.541 5.45689 493.327 6.88606C500.918 10.7808 506.258 18.018 507.687 26.3505C507.992 28.1286 508.031 28.6587 508.031 30.9669C508.031 33.2751 507.992 33.8051 507.687 35.5832C506.258 43.9158 500.918 51.1529 493.327 55.0477C490.944 56.2702 488.237 57.1728 485.646 57.6089C483.821 57.9161 483.336 57.9522 481.039 57.9522C478.742 57.9522 478.257 57.9161 476.432 57.6089C468 56.1898 460.558 50.6157 456.768 42.8812C455.368 40.0228 454.563 37.2713 454.137 33.8861C454.015 32.9207 454.015 29.0131 454.137 28.0477C454.653 23.9453 455.847 20.3978 457.812 17.1277C462.306 9.64997 469.958 4.8385 478.663 4.01856C479.675 3.92324 483.379 3.98556 484.299 4.1134ZM463.452 23.2277V24.7891H466.202H468.952V32.5283V40.2675H470.854H472.755V32.5283V24.7891H475.505H478.255V23.2277V21.6663H470.854H463.452V23.2277ZM480.632 30.9669V40.2675H482.397H484.162L484.146 33.0431C484.136 29.0697 484.144 25.8334 484.161 25.8513C484.179 25.8693 485.005 29.1126 485.997 33.0587L487.8 40.2335H489.625H491.449L492.452 36.2621C493.004 34.0778 493.815 30.8549 494.255 29.1C494.695 27.3451 495.08 25.8802 495.109 25.8448C495.139 25.8093 495.163 29.0399 495.163 33.0239V40.2675H496.895H498.627V30.9661V21.6648L495.8 21.6825L492.974 21.7002L491.324 27.9683C490.417 31.4157 489.664 34.247 489.651 34.2601C489.638 34.2731 488.911 31.59 488.036 28.2975C487.16 25.0051 486.402 22.1661 486.351 21.9887L486.258 21.6663H483.445H480.632V30.9669Z" fill="#3E4560"/>
</svg>
