<svg width="29" height="30" viewBox="0 0 29 30" fill="none" xmlns="http://www.w3.org/2000/svg">
<path d="M26.8409 20.875L16.0155 2.125C15.342 0.958336 13.658 0.958329 12.9845 2.125L2.15914 20.875C1.48556 22.0417 2.32753 23.5 3.67468 23.5H25.3253C26.6725 23.5 27.5144 22.0417 26.8409 20.875Z" stroke="#EC5959" stroke-width="1.5"/>
<path d="M15.096 10.883V20H13.494V10.883H15.096ZM15.456 8.021C15.456 8.177 15.423 8.324 15.357 8.462C15.297 8.594 15.213 8.714 15.105 8.822C15.003 8.924 14.883 9.005 14.745 9.065C14.607 9.125 14.46 9.155 14.304 9.155C14.148 9.155 14.001 9.125 13.863 9.065C13.731 9.005 13.611 8.924 13.503 8.822C13.401 8.714 13.32 8.594 13.26 8.462C13.2 8.324 13.17 8.177 13.17 8.021C13.17 7.865 13.2 7.718 13.26 7.58C13.32 7.436 13.401 7.313 13.503 7.211C13.611 7.103 13.731 7.019 13.863 6.959C14.001 6.899 14.148 6.869 14.304 6.869C14.46 6.869 14.607 6.899 14.745 6.959C14.883 7.019 15.003 7.103 15.105 7.211C15.213 7.313 15.297 7.436 15.357 7.58C15.423 7.718 15.456 7.865 15.456 8.021Z" fill="#EC5959"/>
</svg>
